<svg xmlns="http://www.w3.org/2000/svg" xmlns:xlink="http://www.w3.org/1999/xlink" version="1.1" viewBox="0 0 48 48" xml:space="preserve" style="enable-background:new 0 0 48 48"><style type="text/css">.st1{fill:none;stroke:#04050a;stroke-width:.7;stroke-linecap:round;stroke-linejoin:round;stroke-miterlimit:10}.st2{fill:#04050a}</style><g id="Icons"><g><g><circle cx="24" cy="24" r="12.244" class="st1"/></g><g><path d="M15.15215,24.5226c0,0,2.00649,1.63687,6.99631,1.58407" class="st1"/><path d="M19.50464,25.96163c0.17131,0.19669,0.27283,0.45049,0.27283,0.72332 c0,0.62815-0.50125,1.1294-1.12939,1.1294c-0.6218,0-1.1294-0.50125-1.1294-1.1294c0-0.41876,0.22842-0.78042,0.57104-0.97077 l0.47932,0.09953C18.56904,25.81371,19.43601,25.95249,19.50464,25.96163z" class="st2"/><path d="M32.84785,24.5226c0,0-2.00649,1.63687-6.99631,1.58407" class="st1"/><path d="M29.91028,25.71417c0.34262,0.19035,0.57104,0.55201,0.57104,0.97077 c0,0.62815-0.50759,1.1294-1.1294,1.1294c-0.62815,0-1.12939-0.50125-1.12939-1.1294c0-0.27283,0.10152-0.52663,0.27283-0.72332 L29.91028,25.71417z" class="st2"/><ellipse cx="24.129" cy="30.687" class="st2" rx="3.485" ry=".488"/></g></g></g></svg>